<svg width="512" height="512" viewBox="0 0 512 512" fill="none" xmlns="http://www.w3.org/2000/svg">
<g clip-path="url(#clip0_129_18)">
<path d="M206.979 375.829H174.298V419.403H206.979V375.829Z" fill="white"/>
<path d="M337.702 375.829H305.021V419.403H337.702V375.829Z" fill="white"/>
<path d="M152.511 217.871C140.502 217.871 130.728 227.643 130.724 239.658C130.724 251.671 140.497 261.445 152.509 261.445H152.511C164.524 261.445 174.298 251.671 174.298 239.658C174.298 227.645 164.524 217.871 152.511 217.871Z" fill="white"/>
<path d="M359.489 217.871C347.48 217.871 337.706 227.643 337.702 239.658C337.702 251.671 347.475 261.445 359.487 261.445H359.489C371.502 261.445 381.276 251.671 381.276 239.658C381.277 227.645 371.503 217.871 359.489 217.871Z" fill="white"/>
<path d="M462.979 76.254C433.838 76.254 408.758 93.954 397.908 119.164C393.405 115.091 388.439 111.523 383.113 108.523C381.81 103.929 376.211 84.56 368.94 64.879C354.373 25.447 343.131 10.801 327.643 10.896C312.102 10.973 301.058 25.717 286.893 65.297C282.538 77.466 278.818 89.508 276.305 98.043H235.683C233.085 89.507 229.174 77.254 224.603 64.881C210.076 25.554 198.905 10.898 183.433 10.898C183.392 10.898 183.348 10.898 183.307 10.898C167.766 10.975 156.722 25.719 142.557 65.299C135.771 84.26 130.522 102.918 129 108.46C123.629 111.474 118.625 115.065 114.089 119.167C103.241 93.956 78.162 76.256 49.02 76.256H0V125.277C0 164.321 31.765 196.086 70.809 196.086H87.149V288.682C87.149 311.146 97.688 331.8 115 344.99C111.102 354.513 108.937 364.921 108.937 375.831V419.405C108.937 464.456 145.589 501.107 190.639 501.107H321.362C366.413 501.107 403.064 464.455 403.064 419.405V375.831C403.064 364.922 400.898 354.514 397.002 344.991C414.313 331.802 424.852 311.147 424.852 288.683V196.086H441.192C480.236 196.086 512.001 164.321 512.001 125.277V76.254H462.979ZM87.149 163.403H70.809C49.785 163.403 32.681 146.299 32.681 125.275V108.935H49.021C70.045 108.935 87.149 126.039 87.149 147.063V163.403ZM327.847 51.423C333.096 61.918 339.78 79.209 345.854 98.11C344.954 98.081 310.392 98.041 310.392 98.041C316.253 79.179 322.724 61.927 327.847 51.423ZM183.512 51.423C188.754 61.906 195.427 79.167 201.497 98.041C201.497 98.041 166.972 98.08 166.035 98.112C171.9 79.222 178.383 61.939 183.512 51.423ZM168.851 130.722H343.149C364.451 130.722 382.613 144.385 389.36 163.403H354.043C314.999 163.403 283.235 195.168 283.235 234.211V294.126H228.767V234.211C228.767 195.167 197.002 163.403 157.958 163.403H122.64C129.386 144.385 147.549 130.722 168.851 130.722ZM119.83 288.679V196.083H157.958C178.982 196.083 196.086 213.187 196.086 234.211V294.126H190.639C168.295 294.126 148.024 303.149 133.26 317.735C124.876 310.612 119.83 300.081 119.83 288.679ZM370.383 419.403C370.383 446.433 348.392 468.424 321.362 468.424H190.638C163.608 468.424 141.617 446.433 141.617 419.403V375.829C141.617 348.799 163.608 326.808 190.638 326.808H321.361C348.391 326.808 370.382 348.799 370.382 375.829V419.403H370.383ZM392.17 288.681C392.17 300.082 387.125 310.614 378.741 317.736C363.976 303.15 343.705 294.126 321.361 294.126H315.914V234.211C315.914 213.187 333.018 196.083 354.042 196.083H392.17V288.681ZM479.319 125.275C479.319 146.299 462.215 163.403 441.191 163.403H424.851V147.063C424.851 126.039 441.955 108.935 462.979 108.935H479.319V125.275Z" fill="white"/>
</g>
<defs>
<clipPath id="clip0_129_18">
<rect width="512" height="512" fill="white"/>
</clipPath>
</defs>
</svg>
